<svg width="70" height="70" viewBox="0 0 70 70" fill="none" xmlns="http://www.w3.org/2000/svg">
<circle cx="35" cy="35" r="35" fill="#5C62EC"/>
<path d="M33.5 36C33.5 36.8284 34.1716 37.5 35 37.5C35.8284 37.5 36.5 36.8284 36.5 36L33.5 36ZM36.0607 12.9393C35.4749 12.3536 34.5251 12.3536 33.9393 12.9393L24.3934 22.4853C23.8076 23.0711 23.8076 24.0208 24.3934 24.6066C24.9792 25.1924 25.9289 25.1924 26.5147 24.6066L35 16.1213L43.4853 24.6066C44.0711 25.1924 45.0208 25.1924 45.6066 24.6066C46.1924 24.0208 46.1924 23.0711 45.6066 22.4853L36.0607 12.9393ZM36.5 36L36.5 14L33.5 14L33.5 36L36.5 36Z" fill="white"/>
<path d="M19.047 53V42.47H20.516V47.02H23.22V42.47H24.689V53H23.22V48.073H20.516V53H19.047ZM27.5691 53.104C27.2745 53.104 27.0145 53.0217 26.7891 52.857C26.5638 52.6837 26.3861 52.467 26.2561 52.207C26.1261 51.9383 26.0611 51.6567 26.0611 51.362C26.0611 50.894 26.1391 50.4997 26.2951 50.179C26.4511 49.8583 26.6635 49.5897 26.9321 49.373C27.2095 49.1477 27.5258 48.9527 27.8811 48.788C28.2451 48.6233 28.6265 48.463 29.0251 48.307V47.774C29.0251 47.4707 29.0078 47.2193 28.9731 47.02C28.9385 46.8207 28.8648 46.6733 28.7521 46.578C28.6481 46.474 28.4878 46.422 28.2711 46.422C28.0805 46.422 27.9245 46.4653 27.8031 46.552C27.6905 46.6387 27.6081 46.7643 27.5561 46.929C27.5041 47.085 27.4781 47.2713 27.4781 47.488V47.865L26.1001 47.813C26.1175 46.981 26.3081 46.37 26.6721 45.98C27.0361 45.5813 27.5995 45.382 28.3621 45.382C29.1075 45.382 29.6361 45.5857 29.9481 45.993C30.2601 46.4003 30.4161 46.9897 30.4161 47.761V51.193C30.4161 51.427 30.4205 51.6523 30.4291 51.869C30.4465 52.0857 30.4638 52.2893 30.4811 52.48C30.5071 52.662 30.5288 52.8353 30.5461 53H29.2721C29.2461 52.8613 29.2115 52.688 29.1681 52.48C29.1335 52.2633 29.1075 52.0683 29.0901 51.895C29.0035 52.1897 28.8345 52.467 28.5831 52.727C28.3405 52.9783 28.0025 53.104 27.5691 53.104ZM28.1151 51.908C28.2538 51.908 28.3838 51.869 28.5051 51.791C28.6265 51.713 28.7348 51.6263 28.8301 51.531C28.9255 51.427 28.9905 51.3447 29.0251 51.284V49.152C28.8085 49.2733 28.6048 49.3947 28.4141 49.516C28.2235 49.6373 28.0545 49.7673 27.9071 49.906C27.7685 50.036 27.6558 50.1877 27.5691 50.361C27.4911 50.5257 27.4521 50.7163 27.4521 50.933C27.4521 51.2363 27.5085 51.4747 27.6211 51.648C27.7338 51.8213 27.8985 51.908 28.1151 51.908ZM31.7523 53V45.486H33.8583C34.3696 45.486 34.7683 45.5727 35.0543 45.746C35.349 45.9107 35.557 46.1317 35.6783 46.409C35.8083 46.6777 35.8776 46.968 35.8863 47.28C35.895 47.6527 35.8343 47.9863 35.7043 48.281C35.5743 48.5757 35.3056 48.7837 34.8983 48.905C35.2103 48.9657 35.4486 49.0957 35.6133 49.295C35.7866 49.4857 35.9036 49.7153 35.9643 49.984C36.0336 50.2527 36.0683 50.53 36.0683 50.816C36.0683 51.2493 36.0033 51.6307 35.8733 51.96C35.752 52.2893 35.5353 52.545 35.2233 52.727C34.92 52.909 34.4866 53 33.9233 53H31.7523ZM33.1173 51.947H33.6113C33.8106 51.947 33.9926 51.921 34.1573 51.869C34.322 51.8083 34.452 51.6913 34.5473 51.518C34.6513 51.3447 34.7033 51.0933 34.7033 50.764C34.7033 50.374 34.6556 50.0923 34.5603 49.919C34.4736 49.737 34.3523 49.6243 34.1963 49.581C34.049 49.5377 33.8756 49.516 33.6763 49.516H33.1173V51.947ZM33.1173 48.515H33.7933C34.062 48.515 34.2743 48.437 34.4303 48.281C34.5863 48.125 34.6643 47.8477 34.6643 47.449C34.6643 47.0937 34.5733 46.8467 34.3913 46.708C34.2093 46.5693 33.9623 46.5 33.6503 46.5H33.1173V48.515ZM39.2278 53.104C38.6385 53.104 38.1835 52.9913 37.8628 52.766C37.5421 52.532 37.3168 52.194 37.1868 51.752C37.0655 51.3013 37.0048 50.751 37.0048 50.101V48.385C37.0048 47.7177 37.0698 47.163 37.1998 46.721C37.3298 46.279 37.5551 45.9453 37.8758 45.72C38.2051 45.4947 38.6558 45.382 39.2278 45.382C39.8605 45.382 40.3241 45.512 40.6188 45.772C40.9221 46.032 41.1215 46.409 41.2168 46.903C41.3121 47.3883 41.3598 47.9733 41.3598 48.658V49.269H38.3958V50.777C38.3958 51.0803 38.4218 51.3273 38.4738 51.518C38.5345 51.7087 38.6255 51.8517 38.7468 51.947C38.8768 52.0337 39.0415 52.077 39.2408 52.077C39.4488 52.077 39.6048 52.0293 39.7088 51.934C39.8215 51.83 39.8951 51.687 39.9298 51.505C39.9731 51.3143 39.9948 51.0933 39.9948 50.842V50.387H41.3468V50.673C41.3468 51.427 41.1865 52.0207 40.8658 52.454C40.5451 52.8873 39.9991 53.104 39.2278 53.104ZM38.3958 48.515H39.9948V47.839C39.9948 47.527 39.9775 47.267 39.9428 47.059C39.9081 46.8423 39.8345 46.682 39.7218 46.578C39.6178 46.4653 39.4488 46.409 39.2148 46.409C38.9895 46.409 38.8161 46.461 38.6948 46.565C38.5821 46.669 38.5041 46.8467 38.4608 47.098C38.4175 47.3407 38.3958 47.6787 38.3958 48.112V48.515ZM42.6195 55.47V45.486H44.0105V46.084C44.1751 45.8933 44.3745 45.7287 44.6085 45.59C44.8425 45.4513 45.1198 45.382 45.4405 45.382C45.8305 45.382 46.1381 45.486 46.3635 45.694C46.5975 45.8933 46.7708 46.149 46.8835 46.461C46.9961 46.7643 47.0698 47.0763 47.1045 47.397C47.1391 47.709 47.1565 47.9777 47.1565 48.203V50.023C47.1565 50.5517 47.1045 51.0543 47.0005 51.531C46.8965 51.999 46.7058 52.3803 46.4285 52.675C46.1598 52.961 45.7785 53.104 45.2845 53.104C45.0158 53.104 44.7775 53.039 44.5695 52.909C44.3615 52.7703 44.1751 52.6143 44.0105 52.441V55.47H42.6195ZM45.0115 52.012C45.2541 52.012 45.4275 51.9253 45.5315 51.752C45.6355 51.57 45.7005 51.3273 45.7265 51.024C45.7525 50.7207 45.7655 50.387 45.7655 50.023V48.203C45.7655 47.891 45.7481 47.605 45.7135 47.345C45.6788 47.0763 45.6051 46.864 45.4925 46.708C45.3798 46.552 45.2021 46.474 44.9595 46.474C44.7775 46.474 44.6041 46.513 44.4395 46.591C44.2748 46.669 44.1318 46.76 44.0105 46.864V51.674C44.1405 51.7693 44.2878 51.8517 44.4525 51.921C44.6171 51.9817 44.8035 52.012 45.0115 52.012ZM47.8362 53L49.5262 49.048L47.8752 45.486H49.2012L50.3062 47.865L51.2812 45.486H52.6462L50.9302 49.217L52.6722 53H51.3462L50.1632 50.452L49.1492 53H47.8362Z" fill="white"/>
</svg>
