<svg width="70" height="70" viewBox="0 0 70 70" fill="none" xmlns="http://www.w3.org/2000/svg">
<circle cx="35" cy="35" r="35" fill="#5C62EC"/>
<path d="M33.5 36C33.5 36.8284 34.1716 37.5 35 37.5C35.8284 37.5 36.5 36.8284 36.5 36L33.5 36ZM36.0607 12.9393C35.4749 12.3536 34.5251 12.3536 33.9393 12.9393L24.3934 22.4853C23.8076 23.0711 23.8076 24.0208 24.3934 24.6066C24.9792 25.1924 25.9289 25.1924 26.5147 24.6066L35 16.1213L43.4853 24.6066C44.0711 25.1924 45.0208 25.1924 45.6066 24.6066C46.1924 24.0208 46.1924 23.0711 45.6066 22.4853L36.0607 12.9393ZM36.5 36L36.5 14L33.5 14L33.5 36L36.5 36Z" fill="white"/>
<path d="M17.8791 53V42.47H19.7901V46.877H21.9351V42.47H23.8591V53H21.9351V48.242H19.7901V53H17.8791ZM26.8092 53.117C26.4712 53.117 26.1809 53.0303 25.9382 52.857C25.6956 52.675 25.5092 52.4497 25.3792 52.181C25.2492 51.9037 25.1842 51.6177 25.1842 51.323C25.1842 50.855 25.2709 50.4607 25.4442 50.14C25.6176 49.8193 25.8472 49.5507 26.1332 49.334C26.4192 49.1173 26.7442 48.931 27.1082 48.775C27.4722 48.6103 27.8406 48.463 28.2132 48.333V47.683C28.2132 47.4663 28.1959 47.2843 28.1612 47.137C28.1352 46.9897 28.0789 46.877 27.9922 46.799C27.9142 46.721 27.7886 46.682 27.6152 46.682C27.4679 46.682 27.3466 46.7167 27.2512 46.786C27.1646 46.8553 27.0996 46.955 27.0562 47.085C27.0216 47.2063 26.9999 47.3493 26.9912 47.514L26.9652 47.969L25.2882 47.904C25.3142 47.0373 25.5266 46.4003 25.9252 45.993C26.3326 45.577 26.9479 45.369 27.7712 45.369C28.5252 45.369 29.0712 45.577 29.4092 45.993C29.7559 46.409 29.9292 46.9723 29.9292 47.683V51.154C29.9292 51.4313 29.9336 51.6827 29.9422 51.908C29.9596 52.1333 29.9769 52.337 29.9942 52.519C30.0202 52.701 30.0419 52.8613 30.0592 53H28.4732C28.4472 52.8267 28.4126 52.6317 28.3692 52.415C28.3346 52.1897 28.3086 52.025 28.2912 51.921C28.2046 52.2243 28.0399 52.5017 27.7972 52.753C27.5546 52.9957 27.2252 53.117 26.8092 53.117ZM27.4592 51.804C27.5719 51.804 27.6759 51.778 27.7712 51.726C27.8752 51.6653 27.9662 51.596 28.0442 51.518C28.1222 51.44 28.1786 51.3707 28.2132 51.31V49.217C28.0226 49.3297 27.8406 49.4423 27.6672 49.555C27.5026 49.6677 27.3552 49.7933 27.2252 49.932C27.1039 50.062 27.0086 50.205 26.9392 50.361C26.8786 50.517 26.8482 50.699 26.8482 50.907C26.8482 51.1843 26.9002 51.4053 27.0042 51.57C27.1169 51.726 27.2686 51.804 27.4592 51.804ZM31.2312 53V45.486H33.6362C34.2688 45.486 34.7542 45.5683 35.0922 45.733C35.4302 45.8977 35.6598 46.1187 35.7812 46.396C35.9112 46.6647 35.9805 46.9723 35.9892 47.319C35.9892 47.7523 35.9025 48.1033 35.7292 48.372C35.5645 48.632 35.2915 48.814 34.9102 48.918C35.2482 48.996 35.5082 49.126 35.6902 49.308C35.8722 49.49 35.9978 49.711 36.0672 49.971C36.1365 50.231 36.1712 50.517 36.1712 50.829C36.1712 51.2883 36.0932 51.6827 35.9372 52.012C35.7812 52.3327 35.5168 52.5797 35.1442 52.753C34.7715 52.9177 34.2558 53 33.5972 53H31.2312ZM32.9862 51.882H33.4022C33.6015 51.882 33.7792 51.8603 33.9352 51.817C34.0912 51.7737 34.2168 51.674 34.3122 51.518C34.4075 51.3533 34.4552 51.102 34.4552 50.764C34.4552 50.3827 34.4118 50.1053 34.3252 49.932C34.2385 49.7587 34.1172 49.6547 33.9612 49.62C33.8138 49.5767 33.6405 49.555 33.4412 49.555H32.9862V51.882ZM32.9862 48.476H33.5842C33.8442 48.476 34.0348 48.398 34.1562 48.242C34.2862 48.086 34.3512 47.839 34.3512 47.501C34.3512 47.1803 34.2818 46.942 34.1432 46.786C34.0045 46.6213 33.7705 46.539 33.4412 46.539H32.9862V48.476ZM39.4984 53.117C38.935 53.117 38.4757 53.013 38.1204 52.805C37.765 52.5883 37.5007 52.2763 37.3274 51.869C37.1627 51.453 37.0804 50.9547 37.0804 50.374V48.112C37.0804 47.514 37.1627 47.0113 37.3274 46.604C37.5007 46.1967 37.765 45.889 38.1204 45.681C38.4844 45.473 38.9437 45.369 39.4984 45.369C40.0964 45.369 40.56 45.4817 40.8894 45.707C41.2274 45.9323 41.4657 46.2617 41.6044 46.695C41.7517 47.1197 41.8254 47.6397 41.8254 48.255V49.321H38.8354V50.803C38.8354 51.0457 38.857 51.245 38.9004 51.401C38.9524 51.557 39.0304 51.6697 39.1344 51.739C39.2384 51.8083 39.364 51.843 39.5114 51.843C39.6674 51.843 39.793 51.8083 39.8884 51.739C39.9837 51.661 40.053 51.5527 40.0964 51.414C40.1397 51.2667 40.1614 51.0847 40.1614 50.868V50.244H41.8124V50.751C41.8124 51.5137 41.6217 52.0987 41.2404 52.506C40.859 52.9133 40.2784 53.117 39.4984 53.117ZM38.8354 48.45H40.1614V47.735C40.1614 47.475 40.1397 47.267 40.0964 47.111C40.053 46.9463 39.9837 46.8293 39.8884 46.76C39.793 46.682 39.6587 46.643 39.4854 46.643C39.3294 46.643 39.2037 46.682 39.1084 46.76C39.013 46.838 38.9437 46.968 38.9004 47.15C38.857 47.332 38.8354 47.592 38.8354 47.93V48.45ZM43.0251 55.47V45.486H44.7931V46.058C45.0098 45.85 45.2481 45.6853 45.5081 45.564C45.7681 45.434 46.0411 45.369 46.3271 45.369C46.6651 45.369 46.9425 45.447 47.1591 45.603C47.3758 45.759 47.5448 45.967 47.6661 46.227C47.7875 46.4783 47.8698 46.7513 47.9131 47.046C47.9651 47.332 47.9911 47.6093 47.9911 47.878V50.426C47.9911 50.92 47.9305 51.3707 47.8091 51.778C47.6965 52.1853 47.5101 52.5103 47.2501 52.753C46.9988 52.9957 46.6608 53.117 46.2361 53.117C45.9675 53.117 45.7118 53.052 45.4691 52.922C45.2351 52.792 45.0098 52.6273 44.7931 52.428V55.47H43.0251ZM45.5731 51.882C45.7638 51.882 45.9025 51.8213 45.9891 51.7C46.0845 51.57 46.1451 51.401 46.1711 51.193C46.2058 50.9763 46.2231 50.7423 46.2231 50.491V47.8C46.2231 47.566 46.2058 47.358 46.1711 47.176C46.1365 46.9853 46.0715 46.8337 45.9761 46.721C45.8808 46.6083 45.7421 46.552 45.5601 46.552C45.4215 46.552 45.2828 46.5867 45.1441 46.656C45.0141 46.7167 44.8971 46.7903 44.7931 46.877V51.622C44.9058 51.7 45.0271 51.765 45.1571 51.817C45.2871 51.8603 45.4258 51.882 45.5731 51.882ZM48.6617 53L50.2997 48.957L48.7267 45.486H50.4687L51.4177 47.566L52.2497 45.486H53.7577L52.1587 49.204L53.8747 53H52.1197L51.0797 50.699L50.2087 53H48.6617Z" fill="white"/>
</svg>
