<svg width="173" height="49" viewBox="0 0 173 49" fill="none" xmlns="http://www.w3.org/2000/svg">
<path d="M42.07 36V11.7H45.4V36H42.07ZM49.0614 36V18.66H52.2714V20.37C52.8514 19.83 53.4914 19.37 54.1914 18.99C54.8914 18.61 55.6614 18.42 56.5014 18.42C57.2014 18.42 57.7314 18.6 58.0914 18.96C58.4714 19.32 58.7314 19.77 58.8714 20.31C59.0314 20.85 59.1114 21.4 59.1114 21.96V36H55.9014V22.89C55.9014 22.27 55.8114 21.79 55.6314 21.45C55.4514 21.11 55.0814 20.94 54.5214 20.94C54.1614 20.94 53.7814 21.05 53.3814 21.27C53.0014 21.47 52.6314 21.72 52.2714 22.02V36H49.0614ZM75.1005 36.27C73.7005 36.27 72.5305 35.97 71.5905 35.37C70.6705 34.77 69.9705 33.94 69.4905 32.88C69.0105 31.82 68.7305 30.59 68.6505 29.19L71.6505 28.38C71.7105 29.24 71.8405 30.07 72.0405 30.87C72.2605 31.67 72.6105 32.33 73.0905 32.85C73.5705 33.35 74.2405 33.6 75.1005 33.6C75.9805 33.6 76.6405 33.36 77.0805 32.88C77.5405 32.38 77.7705 31.67 77.7705 30.75C77.7705 29.65 77.5205 28.77 77.0205 28.11C76.5205 27.43 75.8905 26.75 75.1305 26.07L71.0505 22.47C70.2505 21.77 69.6605 21.01 69.2805 20.19C68.9005 19.35 68.7105 18.32 68.7105 17.1C68.7105 15.32 69.2205 13.94 70.2405 12.96C71.2605 11.98 72.6505 11.49 74.4105 11.49C75.3705 11.49 76.2105 11.62 76.9305 11.88C77.6705 12.12 78.2805 12.5 78.7605 13.02C79.2605 13.54 79.6505 14.2 79.9305 15C80.2305 15.78 80.4305 16.7 80.5305 17.76L77.6505 18.54C77.5905 17.74 77.4705 17.01 77.2905 16.35C77.1105 15.67 76.7905 15.13 76.3305 14.73C75.8905 14.31 75.2505 14.1 74.4105 14.1C73.5705 14.1 72.9105 14.33 72.4305 14.79C71.9705 15.23 71.7405 15.89 71.7405 16.77C71.7405 17.51 71.8605 18.12 72.1005 18.6C72.3605 19.08 72.7705 19.57 73.3305 20.07L77.4405 23.67C78.3605 24.47 79.1705 25.43 79.8705 26.55C80.5705 27.65 80.9205 28.96 80.9205 30.48C80.9205 31.68 80.6705 32.72 80.1705 33.6C79.6705 34.46 78.9805 35.12 78.1005 35.58C77.2405 36.04 76.2405 36.27 75.1005 36.27ZM83.2802 41.7V18.66H86.4902V20.04C86.8702 19.6 87.3302 19.22 87.8702 18.9C88.4102 18.58 89.0502 18.42 89.7902 18.42C90.6902 18.42 91.4002 18.66 91.9202 19.14C92.4602 19.6 92.8602 20.19 93.1202 20.91C93.3802 21.61 93.5502 22.33 93.6302 23.07C93.7102 23.79 93.7502 24.41 93.7502 24.93V29.13C93.7502 30.35 93.6302 31.51 93.3902 32.61C93.1502 33.69 92.7102 34.57 92.0702 35.25C91.4502 35.91 90.5702 36.24 89.4302 36.24C88.8102 36.24 88.2602 36.09 87.7802 35.79C87.3002 35.47 86.8702 35.11 86.4902 34.71V41.7H83.2802ZM88.8002 33.72C89.3602 33.72 89.7602 33.52 90.0002 33.12C90.2402 32.7 90.3902 32.14 90.4502 31.44C90.5102 30.74 90.5402 29.97 90.5402 29.13V24.93C90.5402 24.21 90.5002 23.55 90.4202 22.95C90.3402 22.33 90.1702 21.84 89.9102 21.48C89.6502 21.12 89.2402 20.94 88.6802 20.94C88.2602 20.94 87.8602 21.03 87.4802 21.21C87.1002 21.39 86.7702 21.6 86.4902 21.84V32.94C86.7902 33.16 87.1302 33.35 87.5102 33.51C87.8902 33.65 88.3202 33.72 88.8002 33.72ZM99.7888 36.24C99.1088 36.24 98.5088 36.05 97.9888 35.67C97.4688 35.27 97.0588 34.77 96.7588 34.17C96.4588 33.55 96.3088 32.9 96.3088 32.22C96.3088 31.14 96.4888 30.23 96.8488 29.49C97.2088 28.75 97.6988 28.13 98.3188 27.63C98.9588 27.11 99.6888 26.66 100.509 26.28C101.349 25.9 102.229 25.53 103.149 25.17V23.94C103.149 23.24 103.109 22.66 103.029 22.2C102.949 21.74 102.779 21.4 102.519 21.18C102.279 20.94 101.909 20.82 101.409 20.82C100.969 20.82 100.609 20.92 100.329 21.12C100.069 21.32 99.8788 21.61 99.7588 21.99C99.6388 22.35 99.5788 22.78 99.5788 23.28V24.15L96.3988 24.03C96.4388 22.11 96.8788 20.7 97.7188 19.8C98.5588 18.88 99.8588 18.42 101.619 18.42C103.339 18.42 104.559 18.89 105.279 19.83C105.999 20.77 106.359 22.13 106.359 23.91V31.83C106.359 32.37 106.369 32.89 106.389 33.39C106.429 33.89 106.469 34.36 106.509 34.8C106.569 35.22 106.619 35.62 106.659 36H103.719C103.659 35.68 103.579 35.28 103.479 34.8C103.399 34.3 103.339 33.85 103.299 33.45C103.099 34.13 102.709 34.77 102.129 35.37C101.569 35.95 100.789 36.24 99.7888 36.24ZM101.049 33.48C101.369 33.48 101.669 33.39 101.949 33.21C102.229 33.03 102.479 32.83 102.699 32.61C102.919 32.37 103.069 32.18 103.149 32.04V27.12C102.649 27.4 102.179 27.68 101.739 27.96C101.299 28.24 100.909 28.54 100.569 28.86C100.249 29.16 99.9888 29.51 99.7888 29.91C99.6088 30.29 99.5188 30.73 99.5188 31.23C99.5188 31.93 99.6488 32.48 99.9088 32.88C100.169 33.28 100.549 33.48 101.049 33.48ZM114.182 36.24C112.762 36.24 111.682 35.96 110.942 35.4C110.222 34.82 109.732 34.01 109.472 32.97C109.232 31.93 109.112 30.72 109.112 29.34V25.35C109.112 23.89 109.242 22.65 109.502 21.63C109.762 20.59 110.252 19.8 110.972 19.26C111.712 18.7 112.782 18.42 114.182 18.42C115.442 18.42 116.412 18.63 117.092 19.05C117.792 19.45 118.272 20.06 118.532 20.88C118.792 21.68 118.922 22.68 118.922 23.88V24.9H116.012V23.85C116.012 23.09 115.962 22.49 115.862 22.05C115.762 21.61 115.582 21.29 115.322 21.09C115.062 20.89 114.692 20.79 114.212 20.79C113.692 20.79 113.292 20.91 113.012 21.15C112.732 21.39 112.542 21.8 112.442 22.38C112.362 22.94 112.322 23.71 112.322 24.69V30.15C112.322 31.63 112.462 32.62 112.742 33.12C113.022 33.62 113.522 33.87 114.242 33.87C114.782 33.87 115.172 33.75 115.412 33.51C115.672 33.25 115.832 32.89 115.892 32.43C115.972 31.97 116.012 31.45 116.012 30.87V29.46H118.922V30.66C118.922 31.82 118.782 32.82 118.502 33.66C118.242 34.5 117.762 35.14 117.062 35.58C116.382 36.02 115.422 36.24 114.182 36.24ZM126.576 36.24C125.216 36.24 124.166 35.98 123.426 35.46C122.686 34.92 122.166 34.14 121.866 33.12C121.586 32.08 121.446 30.81 121.446 29.31V25.35C121.446 23.81 121.596 22.53 121.896 21.51C122.196 20.49 122.716 19.72 123.456 19.2C124.216 18.68 125.256 18.42 126.576 18.42C128.036 18.42 129.106 18.72 129.786 19.32C130.486 19.92 130.946 20.79 131.166 21.93C131.386 23.05 131.496 24.4 131.496 25.98V27.39H124.656V30.87C124.656 31.57 124.716 32.14 124.836 32.58C124.976 33.02 125.186 33.35 125.466 33.57C125.766 33.77 126.146 33.87 126.606 33.87C127.086 33.87 127.446 33.76 127.686 33.54C127.946 33.3 128.116 32.97 128.196 32.55C128.296 32.11 128.346 31.6 128.346 31.02V29.97H131.466V30.63C131.466 32.37 131.096 33.74 130.356 34.74C129.616 35.74 128.356 36.24 126.576 36.24ZM124.656 25.65H128.346V24.09C128.346 23.37 128.306 22.77 128.226 22.29C128.146 21.79 127.976 21.42 127.716 21.18C127.476 20.92 127.086 20.79 126.546 20.79C126.026 20.79 125.626 20.91 125.346 21.15C125.086 21.39 124.906 21.8 124.806 22.38C124.706 22.94 124.656 23.72 124.656 24.72V25.65Z" fill="white"/>
<path d="M2 25.5C1.17157 25.5 0.5 26.1716 0.5 27C0.5 27.8284 1.17157 28.5 2 28.5L2 25.5ZM28.0607 28.0607C28.6464 27.4749 28.6464 26.5251 28.0607 25.9393L18.5147 16.3934C17.9289 15.8076 16.9792 15.8076 16.3934 16.3934C15.8076 16.9792 15.8076 17.9289 16.3934 18.5147L24.8787 27L16.3934 35.4853C15.8076 36.0711 15.8076 37.0208 16.3934 37.6066C16.9792 38.1924 17.9289 38.1924 18.5147 37.6066L28.0607 28.0607ZM2 28.5L27 28.5V25.5L2 25.5L2 28.5Z" fill="white"/>
<path d="M171 28.5C171.828 28.5 172.5 27.8284 172.5 27C172.5 26.1716 171.828 25.5 171 25.5V28.5ZM144.939 25.9393C144.354 26.5251 144.354 27.4749 144.939 28.0607L154.485 37.6066C155.071 38.1924 156.021 38.1924 156.607 37.6066C157.192 37.0208 157.192 36.0711 156.607 35.4853L148.121 27L156.607 18.5147C157.192 17.9289 157.192 16.9792 156.607 16.3934C156.021 15.8076 155.071 15.8076 154.485 16.3934L144.939 25.9393ZM171 25.5H158.5V28.5H171V25.5ZM158.5 25.5L146 25.5V28.5L158.5 28.5V25.5Z" fill="white"/>
</svg>
